<svg xmlns="http://www.w3.org/2000/svg" width="56.946" height="56.946" viewBox="0 0 56.946 56.946"><g transform="translate(2.898 2.898)"><g transform="translate(-2.898 -2.898)"><circle cx="28.473" cy="28.473" r="28.473" fill="#fff"/><circle cx="26.83" cy="26.83" r="26.83" transform="translate(1.643 1.643)" fill="#fff" stroke="#bc9bc9" stroke-width="3"/></g><g transform="translate(8.98 12.86)"><path d="M26.823-172.1c-.153.516-1.147,3.574-2.2,6.842-3.65,11.3-4.625,14.372-4.625,14.7,0,.287.248.306,2.141.268l2.121-.057.344-1.051c.191-.573.612-1.969.956-3.115l.612-2.045H33.3l1.013,3.153,1.032,3.153H37.6a7.412,7.412,0,0,0,2.274-.172,12.68,12.68,0,0,0-.459-1.491c-.4-1.128-2.733-8.275-5.982-18.271L32.518-173H27.11Zm3.5,4.873c.325,1.089.936,3.115,1.376,4.51a19.846,19.846,0,0,1,.688,2.637c-.057.038-1.3.057-2.771.038l-2.657-.057,1.166-4.013c.65-2.217,1.242-4.243,1.319-4.549a1.082,1.082,0,0,1,.191-.516A13.947,13.947,0,0,1,30.32-167.228Z" transform="translate(-20 173)" fill="#bc9bc9"/><path d="M132.867-140.545c-3.325.841-5.867,4.434-5.867,8.295,0,3.192,1.682,6.383,3.994,7.568,2.293,1.147,5.542,1.2,9.537.153.707-.172.822-.268.707-.612-.057-.229-.21-.86-.325-1.414-.268-1.128-.268-1.128-1.969-.707a16.063,16.063,0,0,1-2.771.287,5,5,0,0,1-4.147-1.586c-.612-.707-1.128-2.083-.917-2.427a36.767,36.767,0,0,1,5.562-.191H142.1v-1.4c-.019-3.88-1.51-6.67-4.128-7.664A13.149,13.149,0,0,0,132.867-140.545Zm3.44,3.077a3.75,3.75,0,0,1,1.873,2.695l.134.726h-3.65a33.638,33.638,0,0,1-3.65-.1c0-.038.172-.535.382-1.108C132.256-137.526,134.282-138.443,136.307-137.468Z" transform="translate(-106.55 146.852)" fill="#bc9bc9"/></g></g></svg>