<svg xmlns="http://www.w3.org/2000/svg" width="60.33" height="60.33" viewBox="0 0 60.33 60.33"><g transform="translate(2.909 2.909)"><g transform="translate(-2.909 -2.909)"><circle cx="30.165" cy="30.165" r="30.165" fill="#fff"/><circle cx="28.425" cy="28.425" r="28.425" transform="translate(1.74 1.74)" fill="#fff" stroke="#000" stroke-width="3"/></g><g transform="translate(9.443 17.482)"><path d="M56.068-146.328c-2.934,1.054-4.786,3.219-5.641,6.609-1.4,5.555,1.083,10.769,5.812,12.136a16.8,16.8,0,0,0,7.891-.256c1.083-.4,1.14-.484,1.083-1.481a5.676,5.676,0,0,0-.171-1.2,6.711,6.711,0,0,0-1.795.342c-5.327,1.4-9.572-.769-9.857-4.985l-.085-1.282,6.638.057,6.609.028v-1.766c0-3.5-1.51-6.467-3.96-7.834A8.834,8.834,0,0,0,56.068-146.328Zm3.988,2.051a5.245,5.245,0,0,1,3.048,3.333c.627,2.194.912,2.08-4.815,2.08H53.163l.171-.8a6.381,6.381,0,0,1,3.533-4.444A3.976,3.976,0,0,1,60.057-144.277Z" transform="translate(-50.041 146.777)"/><path d="M115.285-145.858c0,.057,1.31,2.023,2.934,4.33s3.02,4.359,3.134,4.558-1.168,2.279-3.077,5.042c-1.795,2.564-3.276,4.758-3.276,4.843a4.652,4.652,0,0,0,1.709.171h1.738l2.08-3.219c1.14-1.738,2.251-3.5,2.45-3.9.342-.655.4-.655.684-.171.171.285,1.31,2.051,2.507,3.9l2.194,3.39h3.76l-3.3-4.871A31.883,31.883,0,0,1,125.655-137c.057-.171,1.481-2.251,3.162-4.587l3.02-4.273-1.6-.085a3.8,3.8,0,0,0-2.023.256,33.447,33.447,0,0,0-2.45,3.59,28.309,28.309,0,0,1-2.194,3.191,36.127,36.127,0,0,1-2.45-3.533L118.846-146H117.08A5.514,5.514,0,0,0,115.285-145.858Z" transform="translate(-96.494 146.221)"/></g></g></svg>