<svg xmlns="http://www.w3.org/2000/svg" width="60.569" height="60.569" viewBox="0 0 60.569 60.569"><g transform="translate(0 0)"><ellipse cx="30.285" cy="30.285" rx="30.285" ry="30.285" fill="#d6d6d6"/><circle cx="28.537" cy="28.537" r="28.537" transform="translate(1.747 1.747)" fill="#fff" stroke="#e1426a" stroke-width="3"/></g><g transform="translate(20.661 15.726)"><path d="M31.925,884.6l1.9-1.969,5.529,4.868-2.1,2.27" transform="translate(-21.57 -871.848)" fill="#e1426a" stroke="#e1426a" stroke-width="1"/><path d="M37.367,890.341l-5.314-5.15" transform="translate(-21.596 -872.37)" fill="#e1426a" stroke="#e1426a" stroke-width="1"/><path d="M32.053,898.727V885.266" transform="translate(-21.596 -872.385)" fill="#e1426a" stroke="#e1426a" stroke-width="1"/><path d="M31.337,898.472h-2.98V885.191h2.98" transform="translate(-20.846 -872.37)" fill="#e1426a" stroke="#e1426a" stroke-width="1"/><path d="M22.2,869.1l-3.27,2.545,2.156,1.97,3.432,3.137,1.894-1.5" transform="translate(-18.93 -869.101)" fill="#e1426a" stroke="#e1426a" stroke-width="1"/><path d="M27.162,875.172l-4.687-5.97" transform="translate(-19.65 -869.121)" fill="#e1426a" stroke="#e1426a" stroke-width="1"/><g transform="translate(4.104 24.458)" fill="#e1426a" stroke="#fff" stroke-width="0.5"><ellipse cx="4.077" cy="4.659" rx="4.077" ry="4.659" stroke="none"/><ellipse cx="4.077" cy="4.659" rx="3.827" ry="4.409" fill="none"/></g><g transform="translate(4.104 4.656)" fill="#e1426a" stroke="#fff" stroke-width="0.5"><ellipse cx="4.077" cy="4.659" rx="4.077" ry="4.659" stroke="none"/><ellipse cx="4.077" cy="4.659" rx="3.827" ry="4.409" fill="none"/></g><g transform="translate(14.587 13.975)" fill="#e1426a"><path d="M 4.65916919708252 9.068339347839355 C 2.227949142456055 9.068339347839355 0.2499991953372955 7.090389251708984 0.2499991953372955 4.65916919708252 C 0.2499991953372955 2.227949142456055 2.227949142456055 0.2499991953372955 4.65916919708252 0.2499991953372955 C 7.090389251708984 0.2499991953372955 9.068339347839355 2.227949142456055 9.068339347839355 4.65916919708252 C 9.068339347839355 7.090389251708984 7.090389251708984 9.068339347839355 4.65916919708252 9.068339347839355 Z" stroke="none"/><path d="M 4.65916919708252 0.4999990463256836 C 2.365799427032471 0.4999990463256836 0.4999990463256836 2.365799427032471 0.4999990463256836 4.65916919708252 C 0.4999990463256836 6.952539443969727 2.365799427032471 8.818339347839355 4.65916919708252 8.818339347839355 C 6.952539443969727 8.818339347839355 8.818339347839355 6.952539443969727 8.818339347839355 4.65916919708252 C 8.818339347839355 2.365799427032471 6.952539443969727 0.4999990463256836 4.65916919708252 0.4999990463256836 M 4.65916919708252 -9.5367431640625e-07 C 7.232358932495117 -9.5367431640625e-07 9.318339347839355 2.085978984832764 9.318339347839355 4.65916919708252 C 9.318339347839355 7.232358932495117 7.232358932495117 9.318339347839355 4.65916919708252 9.318339347839355 C 2.085978984832764 9.318339347839355 -9.5367431640625e-07 7.232358932495117 -9.5367431640625e-07 4.65916919708252 C -9.5367431640625e-07 2.085978984832764 2.085978984832764 -9.5367431640625e-07 4.65916919708252 -9.5367431640625e-07 Z" stroke="none" fill="#fff"/></g></g></svg>