<svg xmlns="http://www.w3.org/2000/svg" width="58" height="58" viewBox="0 0 58 58"><g transform="translate(-79.773 -80.773)"><g transform="translate(79.773 80.773)" fill="#99435b" stroke="#99435b" stroke-width="3"><circle cx="29" cy="29" r="29" stroke="none"/><circle cx="29" cy="29" r="27.5" fill="none"/></g><g transform="translate(2.257 2.579)"><path d="M91,43a42.414,42.414,0,0,0,4.055,11.951h.427l3.628-7.9h.427l3.841,7.9h.427L107.859,43Z" transform="translate(11.674 48.88)" fill="#fff"/><path d="M121.98,80c-.712,1.219-2.123,3.272-2.175,4.695a2.361,2.361,0,0,0,3.714,1.792C125.271,84.954,123.127,81.414,121.98,80Z" transform="translate(-10.984 19.776)" fill="#fff"/><path d="M44.724,107.088c-2.908,1.126-.94,5.488,1.911,4.346S47.558,105.991,44.724,107.088Z" transform="translate(49.201 -1.391)" fill="#fff"/><path d="M95.658,107.122c-2.849.935-1.121,5.468,1.7,4.4C100.341,110.386,98.626,106.148,95.658,107.122Z" transform="translate(9.158 -1.444)" fill="#fff"/><path d="M146.223,107.008c-2.678,1.077-.838,5.406,1.911,4.346C151.084,110.217,149.154,105.831,146.223,107.008Z" transform="translate(-30.737 -1.312)" fill="#fff"/><path d="M56.22,120.818c-.336,3.015-3.038,2.585-4.844,3.967-2.543,1.946-6.483,8.216-9.745,3.715a5.641,5.641,0,0,1-.854-1.706,9.485,9.485,0,0,1-.136-2.561l-.854-.213c-.574,1.659-1.506,3.154-1.822,4.908a11.936,11.936,0,0,0-.079,2.988c.257,3.133,2.927,4.495,5.742,4.481,4.111-.019,7.978-3.028,11.737-4.44,2.551-.958,5.779-.642,8.109-2.064a4.915,4.915,0,0,0,1.922-6.087c-1.428.327-2.638.785-4.055.092-1.333-.652-1.582-2.118-2.667-2.86C58.055,120.614,56.936,120.818,56.22,120.818Z" transform="translate(53.496 -12.292)" fill="#fff"/></g></g></svg>