<svg xmlns="http://www.w3.org/2000/svg" width="60.569" height="60.569" viewBox="0 0 60.569 60.569"><circle cx="30.285" cy="30.285" r="30.285" fill="#fff"/><circle cx="28.538" cy="28.538" r="28.538" transform="translate(1.748 1.747)" fill="none" stroke="#f5ce0f" stroke-width="3"/><g transform="translate(12.665 19.251)"><path d="M1052.727,273.822h4.766v16.632s.389,6.652-7.33,6.833a8.171,8.171,0,0,1-6.931-4.508l3.877-2.085a3.4,3.4,0,0,0,3.053,2.378c2.322,0,2.565-2.618,2.565-2.618Z" transform="translate(-1043.231 -273.477)" fill="#f5ce0f"/><path d="M1074.1,279.7l3.771-2.437a8.306,8.306,0,0,0-7.165-3.837c-3.425.322-5.891,1.953-6.536,5.131-.556,5.851,3.96,7.582,3.96,7.582l3.628,1.7s2.78.719,2.648,2.97a3.081,3.081,0,0,1-3.693,2.228,5.841,5.841,0,0,1-4.215-2.971l-3.854,2.3s2.775,4.691,8.069,4.778c1.634.012,7.027-.05,8.554-5.446a8.043,8.043,0,0,0-5.024-8.072c-2.922-1.39-2.352-.556-4.367-2a2.244,2.244,0,0,1,.837-4.121C1072.414,277.22,1074.1,279.7,1074.1,279.7Z" transform="translate(-1045.78 -273.425)" fill="#f5ce0f"/></g></svg>