<svg xmlns="http://www.w3.org/2000/svg" width="60.766" height="60.766" viewBox="0 0 60.766 60.766"><g transform="translate(-1.258 -1.258)"><g transform="translate(1.258 1.258)"><circle cx="30.383" cy="30.383" r="30.383" fill="#fff"/><circle cx="28.63" cy="28.63" r="28.63" transform="translate(1.753 1.753)" fill="#fff" stroke="#5fa241" stroke-width="3"/></g><g transform="translate(22.273 12.848)"><path d="M13.754-106.778C5.094-95.691,4.8-85.65,12.876-76.822c2.092,2.259,2.427,2.887,2.72,4.811.377,2.929,1.3,2.887,1.632-.042.251-1.966.586-2.552,2.552-4.644a24.192,24.192,0,0,0,5.774-11.255,20.29,20.29,0,0,0-1.715-11.338c-.92-2.092-6.9-10.711-7.405-10.711A39.45,39.45,0,0,0,13.754-106.778ZM17.018-84.73c.335,6.485.293,8.912-.042,9.33-.418.5-.544.5-1.046,0s-.5-1.883-.167-8.7c.251-4.477.5-8.786.5-9.581C16.39-96.319,16.6-93.641,17.018-84.73Z" transform="translate(-7.032 110)" fill="#3e863d"/></g></g></svg>