<svg xmlns="http://www.w3.org/2000/svg" width="60.766" height="60.766" viewBox="0 0 60.766 60.766"><g transform="translate(1.484 1.484)"><g transform="translate(-1.484 -1.484)"><circle cx="30.383" cy="30.383" r="30.383" fill="#fff"/><circle cx="28.63" cy="28.63" r="28.63" transform="translate(1.753 1.753)" fill="#fff" stroke="#1e9bd8" stroke-width="3"/></g><g transform="translate(10.655 16.07)"><path d="M152.222,97.2v15.912l4.359,2.15v-9.973l9.256,4.956v-5.315Z" transform="translate(-152.222 -97.203)" fill="#1e9bd8"/><path d="M271.911,118.234l9.126-5.359V97.2l-13.615,7.731v5.315l9.2-5.136.06,5.315-9.256,5.2Z" transform="translate(-253.806 -97.203)" fill="#0070ba"/><path d="M276.558,258.371v5.223l-9.137-5.223v-5.315Z" transform="translate(-253.806 -234.636)" fill="#1e9bd8"/><path d="M422.537,99.857v5.136l4.539-2.568V97.2Z" transform="translate(-390.589 -97.203)" fill="#0070ba"/><path d="M358.462,185.487v10.434l-13.735,8.089v-5.223l9.2-5.315V188.1Z" transform="translate(-321.975 -175.053)" fill="#0070ba"/></g></g></svg>