<svg xmlns="http://www.w3.org/2000/svg" xmlns:xlink="http://www.w3.org/1999/xlink" width="60.766" height="60.766" viewBox="0 0 60.766 60.766"><defs><linearGradient id="a" x1="0.5" x2="0.5" y2="1" gradientUnits="objectBoundingBox"><stop offset="0" stop-color="#3e863d"/><stop offset="1" stop-color="#6bbf46"/><stop offset="1" stop-color="#549537"/><stop offset="1" stop-color="#6bbf46"/></linearGradient><linearGradient id="b" x1="0.5" x2="0.5" y2="1" gradientUnits="objectBoundingBox"><stop offset="0" stop-color="#3e863d"/><stop offset="1" stop-color="#6bbf46"/></linearGradient><linearGradient id="c" x1="0.5" x2="0.5" y2="1" gradientUnits="objectBoundingBox"><stop offset="0" stop-color="#6bbf46"/><stop offset="0.661" stop-color="#6bbf46"/><stop offset="1" stop-color="#3e863d"/></linearGradient></defs><circle cx="30.383" cy="30.383" r="30.383" fill="#fff"/><circle cx="28.63" cy="28.63" r="28.63" transform="translate(1.753 1.753)" fill="#fff" stroke="#5fa241" stroke-width="3"/><g transform="translate(14.637 12.201)"><path d="M487.379,61.685l-5.248,9.092-10.5-18.182Z" transform="translate(-455.887 -52.595)" fill="url(#a)"/><path d="M531.471,99.865v18.182l-5.248-9.09Z" transform="translate(-499.979 -90.775)" fill="url(#b)"/><path d="M421.245,79.868,405.5,88.96,395,70.777l-5.248-9.092,15.746-9.09L416,70.777Z" transform="translate(-389.753 -52.595)" fill="url(#c)"/><path d="M395,108.957l-5.248,9.09V99.865Z" transform="translate(-389.753 -90.775)" fill="url(#b)"/><path d="M405.5,165.327l-15.746-9.092,5.248-9.09Z" transform="translate(-389.753 -128.963)" fill="url(#b)"/></g></svg>