<svg xmlns="http://www.w3.org/2000/svg" width="60.331" height="60.331" viewBox="0 0 60.331 60.331"><circle cx="30.165" cy="30.165" r="30.165" fill="#d6d6d6"/><circle cx="28.425" cy="28.425" r="28.425" transform="translate(1.74 1.74)" fill="#fff" stroke="#9adff4" stroke-width="3"/><g transform="translate(10.794 9.533)"><g transform="translate(3.11 0.068)"><ellipse cx="19.371" cy="7.591" rx="19.371" ry="7.591" transform="translate(0 33.551) rotate(-60)" fill="none"/><ellipse cx="18.791" cy="7.011" rx="18.791" ry="7.011" transform="translate(0.792 33.339) rotate(-60)" fill="none" stroke="#69c7dd" stroke-width="1"/></g><g transform="translate(3.332 0)"><ellipse cx="7.595" cy="19.379" rx="7.595" ry="19.379" transform="translate(0 7.364) rotate(-28.999)" fill="none"/><ellipse cx="7.015" cy="18.799" rx="7.015" ry="18.799" transform="translate(0.789 7.59) rotate(-28.999)" fill="none" stroke="#69c7dd" stroke-miterlimit="4.002" stroke-width="1"/></g><g transform="translate(0 13.049)"><ellipse cx="19.371" cy="7.591" rx="19.371" ry="7.591" fill="none"/><ellipse cx="18.791" cy="7.011" rx="18.791" ry="7.011" transform="translate(0.58 0.58)" fill="none" stroke="#69c7dd" stroke-width="1"/></g><circle cx="4.061" cy="4.061" r="4.061" transform="translate(15.32 16.106)" fill="#9adff4" style="isolation:isolate"/></g></svg>