<svg xmlns="http://www.w3.org/2000/svg" width="60.777" height="60.777" viewBox="0 0 60.777 60.777"><g transform="translate(2.984 2.984)"><g transform="translate(-1.484 -1.484)"><circle cx="28.889" cy="28.889" r="28.889" fill="#fff"/><circle cx="28.888" cy="28.888" r="28.888" transform="translate(0 0)" fill="#fff" stroke="#6e54a4" stroke-width="3"/></g><g transform="translate(9.174 10.111)"><path d="M70.044-194.288c-3.619.811-6.572,3.91-7.924,8.319-.458,1.456-.52,2.059-.52,4.888a15.823,15.823,0,0,0,1.872,8.486c.728,1.56.853,2.017.666,2.309-.645,1.04.582,2.995,2.08,3.265a2.569,2.569,0,0,0,2.849-2.912,2.816,2.816,0,0,0-2.475-2.2c-.416,0-.645-.229-1.165-1.186-3.432-6.385-1.789-15.765,3.182-18.136a7.143,7.143,0,0,1,6.427-.312,9.53,9.53,0,0,1,2.933,3.182,17.3,17.3,0,0,1,1.5,4.118c.125.582.27.707,1,.915a4.972,4.972,0,0,1,1.061.354c.312.187-.062-2.35-.582-3.869a11.263,11.263,0,0,0-3.037-4.992,13.464,13.464,0,0,0-3.286-2.08A9.645,9.645,0,0,0,70.044-194.288Z" transform="translate(-54.154 194.495)" fill="#6e54a4"/><path d="M90.956-142.557A2.393,2.393,0,0,0,89.5-140.29c0,1.622,1,2.537,2.745,2.537a1.9,1.9,0,0,0,1.477-.749l.77-.77,1.976.125a16.976,16.976,0,0,1,8.611,2.849c3.453,2.184,6.073,6.572,5.657,9.526a7.19,7.19,0,0,1-4.056,5.408,5.743,5.743,0,0,1-3.141.52,9.068,9.068,0,0,1-3.2-.437l-1.248-.416-.894.728c-.5.416-.832.832-.749.915.541.541,2.808,1.082,4.971,1.165,3.557.166,5.824-.645,8.111-2.933a6.741,6.741,0,0,0,2.184-5.512c0-3.39-1.248-6.032-4.2-8.839a22.589,22.589,0,0,0-3.12-2.475,19.535,19.535,0,0,0-9.339-2.641c-1.6,0-1.685-.021-2.246-.645a1.9,1.9,0,0,0-1.5-.728A3.6,3.6,0,0,0,90.956-142.557Z" transform="translate(-76.251 153.454)" fill="#6e54a4"/><path d="M29.21-114.129a10.36,10.36,0,0,0-3.411,7.8c.021,4.742,2.641,7.758,7.467,8.611a14.334,14.334,0,0,0,7.55-.894,17.474,17.474,0,0,0,9.713-8.236,2.054,2.054,0,0,1,1.269-1.186,2.136,2.136,0,0,0,1.31-1.331,1.847,1.847,0,0,0,.187-1.643,2.566,2.566,0,0,0-3.349-1.726,2.509,2.509,0,0,0-1.331,3.557c.354.728.354.79-.021,1.5-1.581,2.974-5.7,6.177-9.651,7.508a15.763,15.763,0,0,1-7.176-.021,6.927,6.927,0,0,1-3.536-3.473,4.945,4.945,0,0,1-.478-3.078,5.656,5.656,0,0,1,.79-3.12,13.287,13.287,0,0,1,1.872-2.537l1.144-1.206-.208-.936A3.689,3.689,0,0,0,31-115.626C30.895-115.709,30.1-115.023,29.21-114.129Z" transform="translate(-25.799 132.035)" fill="#6e54a4"/></g></g></svg>