<svg xmlns="http://www.w3.org/2000/svg" width="58.066" height="58.066" viewBox="0 0 58.066 58.066"><g transform="translate(0 0)"><circle cx="29.033" cy="29.033" r="29.033" fill="#fff"/><circle cx="27.357" cy="27.357" r="27.357" transform="translate(1.675 1.675)" fill="#fff" stroke="#ca73ae" stroke-width="3"/></g><g transform="translate(14.546 14.579)"><path d="M920.387,200.694v-7.9h13.587V195.4H923.465v2.878h10.508v7.487l-13.587.317v-2.769h10.853V200.7Z" transform="translate(-920.386 -192.796)" fill="#ca73ae"/><path d="M936.309,216.855v-7.9H949.9v2.609H939.387v2.878h10.507v7.487l-13.586.317v-2.769h10.853v-2.622Z" transform="translate(-920.924 -193.342)" fill="#ca73ae"/><path d="M920.387,216.855v-7.9h13.587v2.609H923.465v2.878h10.508v7.487l-13.587.317v-2.769h10.853v-2.622Z" transform="translate(-920.386 -193.342)" fill="#ca73ae"/><path d="M939.2,205.824h-2.891V192.8h13.4v13.026h-2.955v-5.259H939.2v5.261Zm.137-10.37v2.882h7.46v-2.882Z" transform="translate(-920.924 -192.796)" fill="#ca73ae"/></g></svg>