<svg xmlns="http://www.w3.org/2000/svg" width="45.048" height="45.048" viewBox="0 0 45.048 45.048">
  <g id="Tailwind" transform="translate(1.165 0.775)">
    <g id="con-4" transform="translate(0)">
      <circle id="back-4" cx="21.25" cy="21.25" r="21.25" fill="#fff"/>
      <path id="border-4" d="M20.024,0A20.024,20.024,0,1,1,0,20.024,20.024,20.024,0,0,1,20.024,0Z" transform="translate(1.225 1.225)" fill="#fff" stroke="#1baebb" stroke-width="3"/>
    </g>
    <g id="tailwind-2" data-name="tailwind" transform="translate(6.54 12.309)">
      <path id="Path_230" data-name="Path 230" d="M258.017,163.131a9.505,9.505,0,0,1,6.975,1.52,38.643,38.643,0,0,0,3.219,3.04q3.828,1.95,6.438-1.52-1.738,6.608-8.763,5.812a9.261,9.261,0,0,1-3.04-1.073,25.235,25.235,0,0,1-3.756-3.4,4.54,4.54,0,0,0-6.349,1.163A6.84,6.84,0,0,1,258.017,163.131Z" transform="translate(-245.23 -163)" fill="#1baebb" fill-rule="evenodd"/>
      <path id="Path_231" data-name="Path 231" d="M223.394,204.077a9.891,9.891,0,0,1,7.511,1.7,14.043,14.043,0,0,0,4.113,3.4,5.073,5.073,0,0,0,5.276-2.057,6.63,6.63,0,0,1-5.634,5.634,9.986,9.986,0,0,1-6.081-.894,25.247,25.247,0,0,1-3.756-3.4q-3.87-2.156-6.528,1.341A6.847,6.847,0,0,1,223.394,204.077Z" transform="translate(-218.297 -195.005)" fill="#1baebb" fill-rule="evenodd"/>
    </g>
    <circle id="TAILWIND-3" data-name="TAILWIND" cx="20.024" cy="20.024" r="20.024" transform="translate(1.335 1.725)" fill="rgba(255,255,255,0)" stroke="#1baebb" stroke-width="5" opacity="0.13"/>
  </g>
</svg>
