<svg xmlns="http://www.w3.org/2000/svg" width="49.584" height="49.584" viewBox="0 0 49.584 49.584">
  <g id="Typescript" transform="translate(2.749 3.077)">
    <g id="con-4" transform="translate(0)">
      <circle id="back-typescript" cx="22.003" cy="22.003" r="22.003" fill="#fff" stroke="#707070" stroke-width="3" opacity="0.33"/>
      <path id="border-4" d="M20.733,0A20.733,20.733,0,1,1,0,20.733,20.733,20.733,0,0,1,20.733,0Z" transform="translate(1.269 1.269)" fill="#fff" stroke="#bdbdbd" stroke-width="3"/>
    </g>
    <g id="typescript-2" data-name="typescript" transform="translate(7.215 13.037)">
      <path id="Path_232" data-name="Path 232" d="M78.08,49.491a5.49,5.49,0,0,0-3.495,2.972,6.637,6.637,0,0,0,.011,4.221c.711,1.608,2.148,2.735,5.154,4.044a11.474,11.474,0,0,1,2.358,1.3,1.331,1.331,0,0,1,.541,1.265,1.363,1.363,0,0,1-.456,1.21,3.68,3.68,0,0,1-4,.336,5.744,5.744,0,0,1-1.333-1.117l-.7-.793-1.443.862c-.794.474-1.511.888-1.595.919-.347.129,1.358,2.138,2.358,2.78,2.8,1.794,7.278,1.659,9.488-.286a6.269,6.269,0,0,0,1.179-1.478,3.971,3.971,0,0,0,.433-2.424,4.84,4.84,0,0,0-.342-2.344c-.738-1.6-2.323-2.8-5.375-4.079-1.9-.8-2.7-1.516-2.7-2.427,0-1.833,2.435-2.361,3.758-.815.363.424.641.616.8.554a20.5,20.5,0,0,0,2.728-1.861c.054-.087-.392-.654-.991-1.26a5.038,5.038,0,0,0-1.89-1.384,10.488,10.488,0,0,0-4.489-.2M57.1,50.519c-.056.6-.1,1.389-.1,1.763v.681h5.611V68.513h3.847V52.964h5.45V49.437h-14.7l-.1,1.082" transform="translate(-57 -49.329)" fill="#047bcc" fill-rule="evenodd"/>
    </g>
    <circle id="TS" cx="22.292" cy="22.292" r="22.292" transform="translate(-0.249 -0.577)" fill="rgba(255,255,255,0)" stroke="#047bcc" stroke-width="5"/>
  </g>
</svg>
