<svg xmlns="http://www.w3.org/2000/svg" width="58" height="58" viewBox="0 0 58 58"><g transform="translate(-79.773 -80.773)"><g transform="translate(79.773 80.773)" fill="#0176c5" stroke="#0176c5" stroke-width="3"><circle cx="29" cy="29" r="29" stroke="none"/><circle cx="29" cy="29" r="27.5" fill="none"/></g><g transform="translate(143.034 262.445)"><path d="M121.96-167.458a5.729,5.729,0,0,0-4.092,3.127,4.483,4.483,0,0,0-.6,2.567,5.22,5.22,0,0,0,1.834,4.439c1.235,1.2,1.563,1.409,4.922,2.953,2.277,1.042,2.9,1.621,2.9,2.721,0,1.39-1.293,2.335-3.2,2.335a4.435,4.435,0,0,1-3.551-1.7l-.772-.907-1,.56c-.56.309-1.351.772-1.756,1.023l-.733.463.347.6a8.7,8.7,0,0,0,5.558,3.648,12.122,12.122,0,0,0,5.945-.482,6.832,6.832,0,0,0,3.069-2.972,7.058,7.058,0,0,0-.058-5.25c-.83-1.776-2.393-2.992-5.52-4.343-2.7-1.158-3.455-1.737-3.648-2.741-.251-1.37.676-2.374,2.239-2.374a2.519,2.519,0,0,1,2.258,1.119l.6.695,1.679-1.1,1.66-1.119-.6-.753a6.578,6.578,0,0,0-2.876-2.22A11.914,11.914,0,0,0,121.96-167.458Z" transform="translate(-148.701 4.845)" fill="#fff"/><path d="M21.347-166.784c-.309.077-.347.328-.347,1.911v1.814h6.369v17.949h4.246v-17.949h6.369v-1.332a14.488,14.488,0,0,0-.116-1.911l-.116-.6H29.7C25.285-166.881,21.521-166.842,21.347-166.784Z" transform="translate(-72.117 4.307)" fill="#fff"/></g></g></svg>