<svg xmlns="http://www.w3.org/2000/svg" width="56.946" height="56.946" viewBox="0 0 56.946 56.946"><circle cx="28.473" cy="28.473" r="28.473" fill="#fff"/><circle cx="26.83" cy="26.83" r="26.83" transform="translate(1.643 1.643)" fill="#f5f5f5" stroke="#0463ac" stroke-width="3"/><g transform="translate(12.606 11.268)"><path d="M1047.086,187.378l8.455-4.442,8.335,4.457-8.335,5.03Z" transform="translate(-1039.602 -175.819)" fill="#0062ad"/><path d="M1046.317,188.627l8.432,4.879.006,8.777-8.448-4.406Z" transform="translate(-1039.676 -175.278)" fill="#0062ad"/><path d="M1055.7,193.128v9.158l8.374-4.421.006-9.247Z" transform="translate(-1038.783 -175.278)" fill="#0062ad"/><path d="M1041.074,184.373l14.171-7.911v5.53l-9.6,5.078Z" transform="translate(-1040.174 -176.435)" fill="#73c4ef"/><path d="M1040.3,201.315l-.049-16.237,4.839,2.683-.219,10.863Z" transform="translate(-1040.252 -175.615)" fill="#73c4ef"/><path d="M1055.557,208.661l-14.483-7.323,4.585-3.093,9.578,5.121Z" transform="translate(-1040.174 -174.363)" fill="#73c4ef"/><path d="M1069.905,201.4l-14.035,8.154-.094-5.53,9.514-5.241Z" transform="translate(-1038.776 -174.312)" fill="#73c4ef"/><path d="M1069.522,185.184l.339,16.223-4.883-2.593.019-10.859Z" transform="translate(-1037.9 -175.605)" fill="#73c4ef"/><path d="M1055.355,176.437l14.36,7.578-4.64,3.014-9.492-5.287Z" transform="translate(-1038.816 -176.437)" fill="#73c4ef"/></g></svg>