<svg xmlns="http://www.w3.org/2000/svg" width="60.331" height="60.331" viewBox="0 0 60.331 60.331"><circle cx="30.165" cy="30.165" r="30.165" fill="#fff"/><circle cx="28.425" cy="28.425" r="28.425" transform="translate(1.74 1.74)" fill="#fff" stroke="#d15a9b" stroke-width="3"/><g transform="translate(17.814 22.175)"><path d="M1260.427,303.471h3.372v14.82a23.549,23.549,0,0,1-4.308,1.16c-1.062,0-5.947.088-5.947-6s5.272-5.736,5.272-5.736l1.74.033Z" transform="translate(-1239.101 -303.471)" fill="#d15a9b"/><path d="M1259.772,309.5v5.6s-3.575.942-3.575-2.624S1259.772,309.5,1259.772,309.5Z" transform="translate(-1238.676 -302.511)" fill="#fff"/><path d="M1241.412,303.873h3.853l2.821,5.3,3.027-5.542h3.5l-4.261,7.591,4.679,7.9h-4.267l-2.925-5.575-3.027,5.575h-3.721l4.578-7.744-4.578-7.5Z" transform="translate(-1241.095 -303.445)" fill="#d15a9b"/></g></svg>